<svg width="27" height="22" viewBox="0 0 27 22" fill="none" xmlns="http://www.w3.org/2000/svg">
<path d="M26.9998 2.13332C26.9998 0.900052 26.0779 0 24.8597 0C24.2012 0 23.6084 0.399925 23.6084 0.399925C17.945 3.46657 8.92305 13.8331 8.92305 13.8331C8.26458 13.2665 4.24745 9.5333 4.24745 9.5333H4.2146L4.18176 9.50005C3.65488 9.10012 3.12799 8.79994 2.46951 8.79994C1.08658 8.79994 0 9.9332 0 11.2999C0 12.0665 0.526881 12.8334 0.889082 13.2C3.4245 15.6667 6.1903 18.9666 7.11225 20.3666C7.70481 21.2667 8.39639 22 9.48297 22C10.2402 22 10.833 21.6666 11.294 21.1334C11.4587 20.9334 11.6562 20.7 11.8537 20.3668C13.4342 17.7668 18.933 9.2669 25.4196 4.40027C26.3415 3.66647 27 3.16653 27 2.13327L26.9998 2.13332Z" fill="#EDF2F4"/>
</svg>
