<svg width="31" height="25" viewBox="0 0 31 25" fill="none" xmlns="http://www.w3.org/2000/svg">
<path d="M30.9998 2.42422C30.9998 1.02279 29.9412 0 28.5426 0C27.7866 0 27.1059 0.454461 27.1059 0.454461C20.6035 3.93928 10.245 15.7195 10.245 15.7195C9.48896 15.0756 4.8767 10.8333 4.8767 10.8333H4.83899L4.80128 10.7955C4.19634 10.3411 3.59139 9.99993 2.83536 9.99993C1.24756 9.99993 0 11.2877 0 12.8408C0 13.7119 0.604938 14.5834 1.0208 15C3.93184 17.8031 7.10738 21.5529 8.16591 23.1439C8.84626 24.1667 9.6403 25 10.8879 25C11.7573 25 12.4379 24.6211 12.9672 24.0152C13.1563 23.788 13.3831 23.5227 13.6098 23.1441C15.4244 20.1896 21.7379 10.5306 29.1854 5.00031C30.244 4.16644 31 3.59833 31 2.42417L30.9998 2.42422Z" fill="#EDF2F4"/>
</svg>
